<svg xmlns="http://www.w3.org/2000/svg" xmlns:xlink="http://www.w3.org/1999/xlink" width="500" zoomAndPan="magnify" viewBox="0 0 375 374.999991" height="500" preserveAspectRatio="xMidYMid meet" version="1.0"><defs><g/><clipPath id="4085d8349f"><path d="M 94 94 L 281 94 L 281 281 L 94 281 Z M 94 94 " clip-rule="nonzero"/></clipPath><clipPath id="b884c6364f"><path d="M 187.5 94 C 135.863281 94 94 135.863281 94 187.5 C 94 239.136719 135.863281 281 187.5 281 C 239.136719 281 281 239.136719 281 187.5 C 281 135.863281 239.136719 94 187.5 94 Z M 187.5 94 " clip-rule="nonzero"/></clipPath><clipPath id="ea268b0c7e"><path d="M 144.984375 94.058594 L 229.734375 94.058594 L 229.734375 166.808594 L 144.984375 166.808594 Z M 144.984375 94.058594 " clip-rule="nonzero"/></clipPath></defs><g clip-path="url(#4085d8349f)"><g clip-path="url(#b884c6364f)"><path fill="#014d2f" d="M 94 94 L 281 94 L 281 281 L 94 281 Z M 94 94 " fill-opacity="1" fill-rule="nonzero"/></g></g><g clip-path="url(#ea268b0c7e)"><path fill="#dba813" d="M 196.125 94.101562 L 196.253906 161.554688 L 196.847656 163.394531 L 199.042969 163.390625 L 197.261719 164.679688 L 197.945312 166.769531 L 196.171875 165.472656 L 194.398438 166.769531 L 195.082031 164.679688 L 193.300781 163.390625 L 195.496094 163.394531 L 196.074219 161.609375 L 195.945312 94.101562 Z M 207.96875 94.101562 L 208.042969 133.78125 L 208.636719 135.621094 L 210.832031 135.617188 L 209.050781 136.90625 L 209.734375 138.996094 L 207.960938 137.699219 L 206.1875 138.996094 L 206.871094 136.90625 L 205.089844 135.617188 L 207.285156 135.621094 L 207.863281 133.835938 L 207.789062 94.101562 Z M 147.875 94.101562 L 147.945312 131.5 L 148.539062 133.339844 L 150.734375 133.335938 L 148.953125 134.625 L 149.636719 136.710938 L 147.863281 135.417969 L 146.089844 136.710938 L 146.773438 134.625 L 144.992188 133.335938 L 147.1875 133.339844 L 147.765625 131.550781 L 147.695312 94.101562 Z M 223.675781 150.917969 C 224.507812 150.917969 225.304688 151.085938 226.03125 151.394531 C 225.648438 151.296875 225.25 151.25 224.835938 151.25 C 222.089844 151.25 219.867188 153.472656 219.867188 156.21875 C 219.867188 158.964844 222.089844 161.1875 224.835938 161.1875 C 227.296875 161.1875 229.335938 159.402344 229.734375 157.054688 C 229.699219 160.371094 227 163.046875 223.675781 163.046875 C 220.324219 163.046875 217.613281 160.332031 217.613281 156.980469 C 217.613281 154.011719 219.746094 151.542969 222.5625 151.019531 L 222.5625 94.101562 L 222.742188 94.101562 L 222.742188 150.988281 C 223.046875 150.941406 223.355469 150.917969 223.675781 150.917969 Z M 179.554688 138.742188 C 180.386719 138.742188 181.183594 138.914062 181.910156 139.214844 C 181.527344 139.121094 181.128906 139.070312 180.714844 139.070312 C 177.96875 139.070312 175.746094 141.296875 175.746094 144.042969 C 175.746094 146.789062 177.96875 149.011719 180.714844 149.011719 C 183.175781 149.011719 185.214844 147.226562 185.613281 144.878906 C 185.578125 148.191406 182.878906 150.867188 179.554688 150.867188 C 176.203125 150.867188 173.492188 148.15625 173.492188 144.804688 C 173.492188 141.835938 175.625 139.367188 178.441406 138.84375 L 178.441406 94.101562 L 178.621094 94.101562 L 178.621094 138.8125 C 178.921875 138.765625 179.234375 138.742188 179.554688 138.742188 Z M 161.570312 94.101562 L 161.6875 155.816406 L 162.28125 157.65625 L 164.476562 157.652344 L 162.695312 158.941406 L 163.378906 161.027344 L 161.605469 159.734375 L 159.832031 161.027344 L 160.515625 158.941406 L 158.734375 157.652344 L 160.929688 157.65625 L 161.507812 155.867188 L 161.390625 94.101562 Z M 161.570312 94.101562 " fill-opacity="1" fill-rule="nonzero"/></g><g fill="#f5ffeb" fill-opacity="1"><g transform="translate(147.817577, 179.72034)"><g><path d="M 12.25 1.09375 C 10.6875 1.09375 9.375 0.5625 8.3125 -0.5 C 7.25 -1.5625 6.71875 -2.847656 6.71875 -4.359375 C 6.71875 -5.929688 7.25 -7.257812 8.3125 -8.34375 C 9.375 -9.4375 10.6875 -9.984375 12.25 -9.984375 C 13.820312 -9.984375 15.140625 -9.4375 16.203125 -8.34375 C 17.265625 -7.257812 17.796875 -5.929688 17.796875 -4.359375 C 17.796875 -2.847656 17.265625 -1.5625 16.203125 -0.5 C 15.140625 0.5625 13.820312 1.09375 12.25 1.09375 Z M 12.25 1.09375 "/></g></g></g><g fill="#f5ffeb" fill-opacity="1"><g transform="translate(125.986355, 208.42131)"><g><path d="M 13.515625 0.6875 C 9.734375 0.6875 6.878906 0.03125 4.953125 -1.28125 C 3.035156 -2.59375 2.078125 -4.304688 2.078125 -6.421875 C 2.078125 -7.429688 2.351562 -8.238281 2.90625 -8.84375 C 3.46875 -9.457031 4.359375 -9.765625 5.578125 -9.765625 C 5.773438 -9.765625 6.171875 -9.734375 6.765625 -9.671875 C 6.660156 -9.335938 6.609375 -8.957031 6.609375 -8.53125 C 6.609375 -8.300781 6.640625 -7.890625 6.703125 -7.296875 C 6.898438 -5.617188 7.640625 -4.222656 8.921875 -3.109375 C 10.210938 -1.992188 11.976562 -1.4375 14.21875 -1.4375 C 16.050781 -1.4375 17.539062 -1.90625 18.6875 -2.84375 C 19.84375 -3.78125 20.421875 -5.132812 20.421875 -6.90625 C 20.421875 -8.09375 20.15625 -9.117188 19.625 -9.984375 C 19.101562 -10.859375 18.34375 -11.65625 17.34375 -12.375 C 16.34375 -13.101562 14.953125 -13.976562 13.171875 -15 C 10.804688 -16.3125 8.957031 -17.46875 7.625 -18.46875 C 6.289062 -19.476562 5.238281 -20.625 4.46875 -21.90625 C 3.695312 -23.1875 3.3125 -24.71875 3.3125 -26.5 C 3.3125 -29.363281 4.351562 -31.492188 6.4375 -32.890625 C 8.53125 -34.285156 11.203125 -34.984375 14.453125 -34.984375 C 17.546875 -34.984375 20.019531 -34.460938 21.875 -33.421875 C 23.738281 -32.390625 24.671875 -30.9375 24.671875 -29.0625 C 24.671875 -27.351562 23.75 -26.445312 21.90625 -26.34375 C 21.78125 -26.3125 21.582031 -26.296875 21.3125 -26.296875 C 21.050781 -26.296875 20.691406 -26.332031 20.234375 -26.40625 C 20.265625 -26.5625 20.28125 -26.773438 20.28125 -27.046875 C 20.28125 -27.796875 20.164062 -28.421875 19.9375 -28.921875 C 19.738281 -30.128906 19.113281 -31.09375 18.0625 -31.8125 C 17.007812 -32.539062 15.609375 -32.90625 13.859375 -32.90625 C 12.378906 -32.90625 11.101562 -32.550781 10.03125 -31.84375 C 8.96875 -31.144531 8.4375 -29.988281 8.4375 -28.375 C 8.4375 -26.726562 9.003906 -25.328125 10.140625 -24.171875 C 11.273438 -23.023438 13.289062 -21.660156 16.1875 -20.078125 C 18.1875 -18.960938 19.851562 -17.910156 21.1875 -16.921875 C 22.519531 -15.929688 23.613281 -14.753906 24.46875 -13.390625 C 25.320312 -12.023438 25.75 -10.457031 25.75 -8.6875 C 25.75 -6.976562 25.3125 -5.414062 24.4375 -4 C 23.570312 -2.582031 22.21875 -1.445312 20.375 -0.59375 C 18.53125 0.257812 16.242188 0.6875 13.515625 0.6875 Z M 13.515625 0.6875 "/></g></g></g><g fill="#f5ffeb" fill-opacity="1"><g transform="translate(153.665775, 208.42131)"><g><path d="M 6.515625 -29.015625 C 5.585938 -29.015625 4.800781 -29.328125 4.15625 -29.953125 C 3.519531 -30.578125 3.203125 -31.332031 3.203125 -32.21875 C 3.203125 -33.144531 3.519531 -33.925781 4.15625 -34.5625 C 4.800781 -35.207031 5.585938 -35.53125 6.515625 -35.53125 C 7.398438 -35.53125 8.160156 -35.207031 8.796875 -34.5625 C 9.441406 -33.925781 9.765625 -33.144531 9.765625 -32.21875 C 9.765625 -31.332031 9.441406 -30.578125 8.796875 -29.953125 C 8.160156 -29.328125 7.398438 -29.015625 6.515625 -29.015625 Z M 9.421875 -6.46875 C 9.421875 -3.894531 9.6875 -1.9375 10.21875 -0.59375 C 9.289062 0.226562 8.253906 0.640625 7.109375 0.640625 C 6.210938 0.640625 5.484375 0.382812 4.921875 -0.125 C 4.367188 -0.632812 4.09375 -1.332031 4.09375 -2.21875 L 4.046875 -18.90625 C 4.046875 -21.300781 3.78125 -23.269531 3.25 -24.8125 C 4.238281 -25.601562 5.242188 -26 6.265625 -26 C 7.148438 -26 7.878906 -25.742188 8.453125 -25.234375 C 9.035156 -24.722656 9.328125 -24.023438 9.328125 -23.140625 Z M 9.421875 -6.46875 "/></g></g></g><g fill="#f5ffeb" fill-opacity="1"><g transform="translate(166.839401, 208.42131)"><g><path d="M 18.796875 -18.359375 C 21.265625 -17.992188 23.207031 -17.0625 24.625 -15.5625 C 26.039062 -14.070312 26.75 -12.078125 26.75 -9.578125 C 26.75 -6.285156 25.554688 -3.863281 23.171875 -2.3125 C 20.785156 -0.769531 17.304688 0 12.734375 0 L 7.59375 0 C 6.644531 0 5.878906 -0.253906 5.296875 -0.765625 C 4.722656 -1.273438 4.4375 -1.972656 4.4375 -2.859375 L 4.4375 -27.828125 C 4.4375 -28.710938 4.367188 -29.707031 4.234375 -30.8125 C 4.109375 -31.914062 3.898438 -32.878906 3.609375 -33.703125 C 5.410156 -34.554688 8.140625 -34.984375 11.796875 -34.984375 C 16.140625 -34.984375 19.425781 -34.316406 21.65625 -32.984375 C 23.894531 -31.648438 25.015625 -29.535156 25.015625 -26.640625 C 25.015625 -24.609375 24.472656 -22.859375 23.390625 -21.390625 C 22.304688 -19.921875 20.773438 -18.910156 18.796875 -18.359375 Z M 11.75 -32.90625 C 10.820312 -32.90625 10.210938 -32.890625 9.921875 -32.859375 L 9.921875 -19.140625 L 13.078125 -19.140625 C 15.046875 -19.109375 16.566406 -19.722656 17.640625 -20.984375 C 18.710938 -22.253906 19.25 -24.007812 19.25 -26.25 C 19.25 -28.457031 18.660156 -30.117188 17.484375 -31.234375 C 16.316406 -32.347656 14.40625 -32.90625 11.75 -32.90625 Z M 12.6875 -2.125 C 18.082031 -2.125 20.78125 -4.570312 20.78125 -9.46875 C 20.78125 -12.332031 20.085938 -14.316406 18.703125 -15.421875 C 17.316406 -16.523438 15.328125 -17.078125 12.734375 -17.078125 L 9.921875 -17.078125 L 9.921875 -2.125 Z M 12.6875 -2.125 "/></g></g></g><g fill="#f5ffeb" fill-opacity="1"><g transform="translate(195.999005, 208.42131)"><g><path d="M 26.84375 -4.140625 C 27.238281 -3.585938 27.4375 -2.976562 27.4375 -2.3125 C 27.4375 -1.425781 27.128906 -0.71875 26.515625 -0.1875 C 25.910156 0.332031 25.050781 0.59375 23.9375 0.59375 C 22.488281 0.59375 21.375 0.117188 20.59375 -0.828125 C 19.820312 -1.785156 19.4375 -3.21875 19.4375 -5.125 L 19.4375 -5.234375 C 18.75 -3.328125 17.722656 -1.863281 16.359375 -0.84375 C 14.992188 0.175781 13.304688 0.6875 11.296875 0.6875 C 8.597656 0.6875 6.628906 -0.0820312 5.390625 -1.625 C 4.160156 -3.175781 3.546875 -5.773438 3.546875 -9.421875 L 3.5 -18.84375 C 3.5 -21.382812 3.238281 -23.359375 2.71875 -24.765625 C 3.632812 -25.554688 4.671875 -25.953125 5.828125 -25.953125 C 6.742188 -25.953125 7.488281 -25.695312 8.0625 -25.1875 C 8.644531 -24.675781 8.9375 -23.976562 8.9375 -23.09375 L 8.9375 -10.21875 C 8.9375 -7.25 9.226562 -5.128906 9.8125 -3.859375 C 10.40625 -2.597656 11.476562 -1.96875 13.03125 -1.96875 C 14.082031 -1.96875 15.050781 -2.382812 15.9375 -3.21875 C 16.820312 -4.0625 17.535156 -5.351562 18.078125 -7.09375 C 18.628906 -8.84375 18.90625 -11 18.90625 -13.5625 C 18.90625 -17.445312 18.851562 -20.019531 18.75 -21.28125 C 18.65625 -22.550781 18.394531 -23.726562 17.96875 -24.8125 C 18.914062 -25.570312 19.945312 -25.953125 21.0625 -25.953125 C 21.957031 -25.953125 22.695312 -25.671875 23.28125 -25.109375 C 23.875 -24.554688 24.171875 -23.800781 24.171875 -22.84375 L 24.234375 -6.015625 C 24.234375 -5.097656 24.335938 -4.445312 24.546875 -4.0625 C 24.765625 -3.6875 25.101562 -3.5 25.5625 -3.5 C 26.15625 -3.5 26.582031 -3.710938 26.84375 -4.140625 Z M 26.84375 -4.140625 "/></g></g></g><g fill="#f5ffeb" fill-opacity="1"><g transform="translate(224.369179, 208.42131)"><g><path d="M 25.3125 -4.4375 C 25.800781 -3.945312 26.046875 -3.335938 26.046875 -2.609375 C 26.046875 -1.691406 25.644531 -0.921875 24.84375 -0.296875 C 24.039062 0.328125 23.0625 0.640625 21.90625 0.640625 C 20.914062 0.640625 20.019531 0.34375 19.21875 -0.25 C 18.414062 -0.84375 17.78125 -1.695312 17.3125 -2.8125 L 13.671875 -10.703125 C 11.859375 -10.078125 10.296875 -9.648438 8.984375 -9.421875 C 8.984375 -6.492188 9.03125 -4.535156 9.125 -3.546875 C 9.226562 -2.566406 9.476562 -1.566406 9.875 -0.546875 C 9.445312 -0.179688 8.984375 0.101562 8.484375 0.3125 C 7.992188 0.53125 7.367188 0.640625 6.609375 0.640625 C 5.492188 0.640625 4.722656 0.367188 4.296875 -0.171875 C 3.867188 -0.710938 3.65625 -1.476562 3.65625 -2.46875 L 3.609375 -33.25 C 3.609375 -34.144531 3.894531 -34.847656 4.46875 -35.359375 C 5.039062 -35.867188 5.785156 -36.125 6.703125 -36.125 C 7.921875 -36.125 8.941406 -35.710938 9.765625 -34.890625 C 9.472656 -33.335938 9.273438 -32.023438 9.171875 -30.953125 C 9.078125 -29.890625 9.015625 -28.617188 8.984375 -27.140625 C 8.984375 -26.179688 8.96875 -25.425781 8.9375 -24.875 L 8.875 -19.296875 C 9.632812 -21.367188 10.800781 -22.992188 12.375 -24.171875 C 13.957031 -25.359375 15.867188 -25.953125 18.109375 -25.953125 C 20.179688 -25.953125 21.734375 -25.441406 22.765625 -24.421875 C 23.804688 -23.398438 24.328125 -22.050781 24.328125 -20.375 C 24.328125 -18.5 23.664062 -16.851562 22.34375 -15.4375 C 21.03125 -14.03125 19.351562 -12.847656 17.3125 -11.890625 C 18.132812 -11.628906 18.957031 -10.820312 19.78125 -9.46875 L 21.859375 -5.828125 C 22.316406 -5.035156 22.671875 -4.515625 22.921875 -4.265625 C 23.171875 -4.015625 23.507812 -3.890625 23.9375 -3.890625 C 24.488281 -3.890625 24.945312 -4.070312 25.3125 -4.4375 Z M 8.984375 -11.5 C 11.773438 -12.320312 14.113281 -13.4375 16 -14.84375 C 17.894531 -16.257812 18.84375 -18.003906 18.84375 -20.078125 C 18.84375 -22.085938 17.925781 -23.09375 16.09375 -23.09375 C 14.738281 -23.09375 13.519531 -22.582031 12.4375 -21.5625 C 11.351562 -20.539062 10.503906 -19.140625 9.890625 -17.359375 C 9.285156 -15.585938 8.984375 -13.632812 8.984375 -11.5 Z M 8.984375 -11.5 "/></g></g></g></svg>